<?xml version="1.0" encoding="UTF-8"?>
<svg xmlns="http://www.w3.org/2000/svg" viewBox="0 0 300 500" width="300" height="500">
  <path fill="rgb(0,0,255)" d="M 0 0 h 8 v 8 h -8 v -8 z M 10 0 h 8 v 8 h -8 v -8 z M 20 0 h 8 v 8 h -8 v -8 z M 30 0 h 8 v 8 h -8 v -8 z M 40 0 h 8 v 8 h -8 v -8 z M 50 0 h 8 v 8 h -8 v -8 z M 60 0 h 8 v 8 h -8 v -8 z M 70 0 h 8 v 8 h -8 v -8 z M 80 0 h 8 v 8 h -8 v -8 z M 90 0 h 8 v 8 h -8 v -8 z M 100 0 h 8 v 8 h -8 v -8 z M 110 0 h 8 v 8 h -8 v -8 z M 120 0 h 8 v 8 h -8 v -8 z M 130 0 h 8 v 8 h -8 v -8 z M 140 0 h 8 v 8 h -8 v -8 z M 150 0 h 8 v 8 h -8 v -8 z M 160 0 h 8 v 8 h -8 v -8 z M 170 0 h 8 v 8 h -8 v -8 z M 180 0 h 8 v 8 h -8 v -8 z M 190 0 h 8 v 8 h -8 v -8 z M 200 0 h 8 v 8 h -8 v -8 z M 210 0 h 8 v 8 h -8 v -8 z M 220 0 h 8 v 8 h -8 v -8 z M 230 0 h 8 v 8 h -8 v -8 z M 240 0 h 8 v 8 h -8 v -8 z M 250 0 h 8 v 8 h -8 v -8 z M 260 0 h 8 v 8 h -8 v -8 z M 270 0 h 8 v 8 h -8 v -8 z M 280 0 h 8 v 8 h -8 v -8 z M 290 0 h 8 v 8 h -8 v -8 z M 0 10 h 8 v 8 h -8 v -8 z M 10 10 h 8 v 8 h -8 v -8 z M 20 10 h 8 v 8 h -8 v -8 z M 30 10 h 8 v 8 h -8 v -8 z M 40 10 h 8 v 8 h -8 v -8 z M 50 10 h 8 v 8 h -8 v -8 z M 60 10 h 8 v 8 h -8 v -8 z M 70 10 h 8 v 8 h -8 v -8 z M 80 10 h 8 v 8 h -8 v -8 z M 90 10 h 8 v 8 h -8 v -8 z M 100 10 h 8 v 8 h -8 v -8 z M 110 10 h 8 v 8 h -8 v -8 z M 120 10 h 8 v 8 h -8 v -8 z M 130 10 h 8 v 8 h -8 v -8 z M 140 10 h 8 v 8 h -8 v -8 z M 150 10 h 8 v 8 h -8 v -8 z M 160 10 h 8 v 8 h -8 v -8 z M 170 10 h 8 v 8 h -8 v -8 z M 180 10 h 8 v 8 h -8 v -8 z M 190 10 h 8 v 8 h -8 v -8 z M 200 10 h 8 v 8 h -8 v -8 z M 210 10 h 8 v 8 h -8 v -8 z M 220 10 h 8 v 8 h -8 v -8 z M 230 10 h 8 v 8 h -8 v -8 z M 240 10 h 8 v 8 h -8 v -8 z M 250 10 h 8 v 8 h -8 v -8 z M 260 10 h 8 v 8 h -8 v -8 z M 270 10 h 8 v 8 h -8 v -8 z M 280 10 h 8 v 8 h -8 v -8 z M 290 10 h 8 v 8 h -8 v -8 z M 0 20 h 8 v 8 h -8 v -8 z M 10 20 h 8 v 8 h -8 v -8 z M 20 20 h 8 v 8 h -8 v -8 z M 30 20 h 8 v 8 h -8 v -8 z M 40 20 h 8 v 8 h -8 v -8 z M 50 20 h 8 v 8 h -8 v -8 z M 60 20 h 8 v 8 h -8 v -8 z M 70 20 h 8 v 8 h -8 v -8 z M 80 20 h 8 v 8 h -8 v -8 z M 90 20 h 8 v 8 h -8 v -8 z M 100 20 h 8 v 8 h -8 v -8 z M 110 20 h 8 v 8 h -8 v -8 z M 120 20 h 8 v 8 h -8 v -8 z M 130 20 h 8 v 8 h -8 v -8 z M 140 20 h 8 v 8 h -8 v -8 z M 150 20 h 8 v 8 h -8 v -8 z M 160 20 h 8 v 8 h -8 v -8 z M 170 20 h 8 v 8 h -8 v -8 z M 180 20 h 8 v 8 h -8 v -8 z M 190 20 h 8 v 8 h -8 v -8 z M 200 20 h 8 v 8 h -8 v -8 z M 210 20 h 8 v 8 h -8 v -8 z M 220 20 h 8 v 8 h -8 v -8 z M 230 20 h 8 v 8 h -8 v -8 z M 240 20 h 8 v 8 h -8 v -8 z M 250 20 h 8 v 8 h -8 v -8 z M 260 20 h 8 v 8 h -8 v -8 z M 270 20 h 8 v 8 h -8 v -8 z M 280 20 h 8 v 8 h -8 v -8 z M 290 20 h 8 v 8 h -8 v -8 z M 0 30 h 8 v 8 h -8 v -8 z M 10 30 h 8 v 8 h -8 v -8 z M 20 30 h 8 v 8 h -8 v -8 z M 30 30 h 8 v 8 h -8 v -8 z M 40 30 h 8 v 8 h -8 v -8 z M 50 30 h 8 v 8 h -8 v -8 z M 60 30 h 8 v 8 h -8 v -8 z M 70 30 h 8 v 8 h -8 v -8 z M 80 30 h 8 v 8 h -8 v -8 z M 90 30 h 8 v 8 h -8 v -8 z M 100 30 h 8 v 8 h -8 v -8 z M 110 30 h 8 v 8 h -8 v -8 z M 120 30 h 8 v 8 h -8 v -8 z M 130 30 h 8 v 8 h -8 v -8 z M 140 30 h 8 v 8 h -8 v -8 z M 150 30 h 8 v 8 h -8 v -8 z M 160 30 h 8 v 8 h -8 v -8 z M 170 30 h 8 v 8 h -8 v -8 z M 180 30 h 8 v 8 h -8 v -8 z M 190 30 h 8 v 8 h -8 v -8 z M 200 30 h 8 v 8 h -8 v -8 z M 210 30 h 8 v 8 h -8 v -8 z M 220 30 h 8 v 8 h -8 v -8 z M 230 30 h 8 v 8 h -8 v -8 z M 240 30 h 8 v 8 h -8 v -8 z M 250 30 h 8 v 8 h -8 v -8 z M 260 30 h 8 v 8 h -8 v -8 z M 270 30 h 8 v 8 h -8 v -8 z M 280 30 h 8 v 8 h -8 v -8 z M 290 30 h 8 v 8 h -8 v -8 z M 0 40 h 8 v 8 h -8 v -8 z M 10 40 h 8 v 8 h -8 v -8 z M 20 40 h 8 v 8 h -8 v -8 z M 30 40 h 8 v 8 h -8 v -8 z M 40 40 h 8 v 8 h -8 v -8 z M 50 40 h 8 v 8 h -8 v -8 z M 60 40 h 8 v 8 h -8 v -8 z M 70 40 h 8 v 8 h -8 v -8 z M 80 40 h 8 v 8 h -8 v -8 z M 90 40 h 8 v 8 h -8 v -8 z M 100 40 h 8 v 8 h -8 v -8 z M 110 40 h 8 v 8 h -8 v -8 z M 120 40 h 8 v 8 h -8 v -8 z M 130 40 h 8 v 8 h -8 v -8 z M 140 40 h 8 v 8 h -8 v -8 z M 150 40 h 8 v 8 h -8 v -8 z M 160 40 h 8 v 8 h -8 v -8 z M 170 40 h 8 v 8 h -8 v -8 z M 180 40 h 8 v 8 h -8 v -8 z M 190 40 h 8 v 8 h -8 v -8 z M 200 40 h 8 v 8 h -8 v -8 z M 210 40 h 8 v 8 h -8 v -8 z M 220 40 h 8 v 8 h -8 v -8 z M 230 40 h 8 v 8 h -8 v -8 z M 240 40 h 8 v 8 h -8 v -8 z M 250 40 h 8 v 8 h -8 v -8 z M 260 40 h 8 v 8 h -8 v -8 z M 270 40 h 8 v 8 h -8 v -8 z M 280 40 h 8 v 8 h -8 v -8 z M 290 40 h 8 v 8 h -8 v -8 z M 0 50 h 8 v 8 h -8 v -8 z M 10 50 h 8 v 8 h -8 v -8 z M 20 50 h 8 v 8 h -8 v -8 z M 30 50 h 8 v 8 h -8 v -8 z M 40 50 h 8 v 8 h -8 v -8 z M 50 50 h 8 v 8 h -8 v -8 z M 60 50 h 8 v 8 h -8 v -8 z M 70 50 h 8 v 8 h -8 v -8 z M 80 50 h 8 v 8 h -8 v -8 z M 90 50 h 8 v 8 h -8 v -8 z M 100 50 h 8 v 8 h -8 v -8 z M 110 50 h 8 v 8 h -8 v -8 z M 120 50 h 8 v 8 h -8 v -8 z M 130 50 h 8 v 8 h -8 v -8 z M 140 50 h 8 v 8 h -8 v -8 z M 150 50 h 8 v 8 h -8 v -8 z M 160 50 h 8 v 8 h -8 v -8 z M 170 50 h 8 v 8 h -8 v -8 z M 180 50 h 8 v 8 h -8 v -8 z M 190 50 h 8 v 8 h -8 v -8 z M 200 50 h 8 v 8 h -8 v -8 z M 210 50 h 8 v 8 h -8 v -8 z M 220 50 h 8 v 8 h -8 v -8 z M 230 50 h 8 v 8 h -8 v -8 z M 240 50 h 8 v 8 h -8 v -8 z M 250 50 h 8 v 8 h -8 v -8 z M 260 50 h 8 v 8 h -8 v -8 z M 270 50 h 8 v 8 h -8 v -8 z M 280 50 h 8 v 8 h -8 v -8 z M 290 50 h 8 v 8 h -8 v -8 z M 0 60 h 8 v 8 h -8 v -8 z M 10 60 h 8 v 8 h -8 v -8 z M 20 60 h 8 v 8 h -8 v -8 z M 30 60 h 8 v 8 h -8 v -8 z M 40 60 h 8 v 8 h -8 v -8 z M 50 60 h 8 v 8 h -8 v -8 z M 60 60 h 8 v 8 h -8 v -8 z M 70 60 h 8 v 8 h -8 v -8 z M 80 60 h 8 v 8 h -8 v -8 z M 90 60 h 8 v 8 h -8 v -8 z M 100 60 h 8 v 8 h -8 v -8 z M 110 60 h 8 v 8 h -8 v -8 z M 120 60 h 8 v 8 h -8 v -8 z M 130 60 h 8 v 8 h -8 v -8 z M 140 60 h 8 v 8 h -8 v -8 z M 150 60 h 8 v 8 h -8 v -8 z M 160 60 h 8 v 8 h -8 v -8 z M 170 60 h 8 v 8 h -8 v -8 z M 180 60 h 8 v 8 h -8 v -8 z M 190 60 h 8 v 8 h -8 v -8 z M 200 60 h 8 v 8 h -8 v -8 z M 210 60 h 8 v 8 h -8 v -8 z M 220 60 h 8 v 8 h -8 v -8 z M 230 60 h 8 v 8 h -8 v -8 z M 240 60 h 8 v 8 h -8 v -8 z M 250 60 h 8 v 8 h -8 v -8 z M 260 60 h 8 v 8 h -8 v -8 z M 270 60 h 8 v 8 h -8 v -8 z M 280 60 h 8 v 8 h -8 v -8 z M 290 60 h 8 v 8 h -8 v -8 z M 0 70 h 8 v 8 h -8 v -8 z M 10 70 h 8 v 8 h -8 v -8 z M 20 70 h 8 v 8 h -8 v -8 z M 30 70 h 8 v 8 h -8 v -8 z M 40 70 h 8 v 8 h -8 v -8 z M 50 70 h 8 v 8 h -8 v -8 z M 60 70 h 8 v 8 h -8 v -8 z M 70 70 h 8 v 8 h -8 v -8 z M 80 70 h 8 v 8 h -8 v -8 z M 90 70 h 8 v 8 h -8 v -8 z M 100 70 h 8 v 8 h -8 v -8 z M 110 70 h 8 v 8 h -8 v -8 z M 120 70 h 8 v 8 h -8 v -8 z M 130 70 h 8 v 8 h -8 v -8 z M 140 70 h 8 v 8 h -8 v -8 z M 150 70 h 8 v 8 h -8 v -8 z M 160 70 h 8 v 8 h -8 v -8 z M 170 70 h 8 v 8 h -8 v -8 z M 180 70 h 8 v 8 h -8 v -8 z M 190 70 h 8 v 8 h -8 v -8 z M 200 70 h 8 v 8 h -8 v -8 z M 210 70 h 8 v 8 h -8 v -8 z M 220 70 h 8 v 8 h -8 v -8 z M 230 70 h 8 v 8 h -8 v -8 z M 240 70 h 8 v 8 h -8 v -8 z M 250 70 h 8 v 8 h -8 v -8 z M 260 70 h 8 v 8 h -8 v -8 z M 270 70 h 8 v 8 h -8 v -8 z M 280 70 h 8 v 8 h -8 v -8 z M 290 70 h 8 v 8 h -8 v -8 z M 0 80 h 8 v 8 h -8 v -8 z M 10 80 h 8 v 8 h -8 v -8 z M 20 80 h 8 v 8 h -8 v -8 z M 30 80 h 8 v 8 h -8 v -8 z M 40 80 h 8 v 8 h -8 v -8 z M 50 80 h 8 v 8 h -8 v -8 z M 60 80 h 8 v 8 h -8 v -8 z M 70 80 h 8 v 8 h -8 v -8 z M 80 80 h 8 v 8 h -8 v -8 z M 90 80 h 8 v 8 h -8 v -8 z M 100 80 h 8 v 8 h -8 v -8 z M 110 80 h 8 v 8 h -8 v -8 z M 120 80 h 8 v 8 h -8 v -8 z M 130 80 h 8 v 8 h -8 v -8 z M 140 80 h 8 v 8 h -8 v -8 z M 150 80 h 8 v 8 h -8 v -8 z M 160 80 h 8 v 8 h -8 v -8 z M 170 80 h 8 v 8 h -8 v -8 z M 180 80 h 8 v 8 h -8 v -8 z M 190 80 h 8 v 8 h -8 v -8 z M 200 80 h 8 v 8 h -8 v -8 z M 210 80 h 8 v 8 h -8 v -8 z M 220 80 h 8 v 8 h -8 v -8 z M 230 80 h 8 v 8 h -8 v -8 z M 240 80 h 8 v 8 h -8 v -8 z M 250 80 h 8 v 8 h -8 v -8 z M 260 80 h 8 v 8 h -8 v -8 z M 270 80 h 8 v 8 h -8 v -8 z M 280 80 h 8 v 8 h -8 v -8 z M 290 80 h 8 v 8 h -8 v -8 z M 0 90 h 8 v 8 h -8 v -8 z M 10 90 h 8 v 8 h -8 v -8 z M 20 90 h 8 v 8 h -8 v -8 z M 30 90 h 8 v 8 h -8 v -8 z M 40 90 h 8 v 8 h -8 v -8 z M 50 90 h 8 v 8 h -8 v -8 z M 60 90 h 8 v 8 h -8 v -8 z M 70 90 h 8 v 8 h -8 v -8 z M 80 90 h 8 v 8 h -8 v -8 z M 90 90 h 8 v 8 h -8 v -8 z M 100 90 h 8 v 8 h -8 v -8 z M 110 90 h 8 v 8 h -8 v -8 z M 120 90 h 8 v 8 h -8 v -8 z M 130 90 h 8 v 8 h -8 v -8 z M 140 90 h 8 v 8 h -8 v -8 z M 150 90 h 8 v 8 h -8 v -8 z M 160 90 h 8 v 8 h -8 v -8 z M 170 90 h 8 v 8 h -8 v -8 z M 180 90 h 8 v 8 h -8 v -8 z M 190 90 h 8 v 8 h -8 v -8 z M 200 90 h 8 v 8 h -8 v -8 z M 210 90 h 8 v 8 h -8 v -8 z M 220 90 h 8 v 8 h -8 v -8 z M 230 90 h 8 v 8 h -8 v -8 z M 240 90 h 8 v 8 h -8 v -8 z M 250 90 h 8 v 8 h -8 v -8 z M 260 90 h 8 v 8 h -8 v -8 z M 270 90 h 8 v 8 h -8 v -8 z M 280 90 h 8 v 8 h -8 v -8 z M 290 90 h 8 v 8 h -8 v -8 z M 0 100 h 8 v 8 h -8 v -8 z M 10 100 h 8 v 8 h -8 v -8 z M 20 100 h 8 v 8 h -8 v -8 z M 30 100 h 8 v 8 h -8 v -8 z M 40 100 h 8 v 8 h -8 v -8 z M 50 100 h 8 v 8 h -8 v -8 z M 60 100 h 8 v 8 h -8 v -8 z M 70 100 h 8 v 8 h -8 v -8 z M 80 100 h 8 v 8 h -8 v -8 z M 90 100 h 8 v 8 h -8 v -8 z M 100 100 h 8 v 8 h -8 v -8 z M 110 100 h 8 v 8 h -8 v -8 z M 120 100 h 8 v 8 h -8 v -8 z M 130 100 h 8 v 8 h -8 v -8 z M 140 100 h 8 v 8 h -8 v -8 z M 150 100 h 8 v 8 h -8 v -8 z M 160 100 h 8 v 8 h -8 v -8 z M 170 100 h 8 v 8 h -8 v -8 z M 180 100 h 8 v 8 h -8 v -8 z M 190 100 h 8 v 8 h -8 v -8 z M 200 100 h 8 v 8 h -8 v -8 z M 210 100 h 8 v 8 h -8 v -8 z M 220 100 h 8 v 8 h -8 v -8 z M 230 100 h 8 v 8 h -8 v -8 z M 240 100 h 8 v 8 h -8 v -8 z M 250 100 h 8 v 8 h -8 v -8 z M 260 100 h 8 v 8 h -8 v -8 z M 270 100 h 8 v 8 h -8 v -8 z M 280 100 h 8 v 8 h -8 v -8 z M 290 100 h 8 v 8 h -8 v -8 z M 0 110 h 8 v 8 h -8 v -8 z M 10 110 h 8 v 8 h -8 v -8 z M 20 110 h 8 v 8 h -8 v -8 z M 30 110 h 8 v 8 h -8 v -8 z M 40 110 h 8 v 8 h -8 v -8 z M 50 110 h 8 v 8 h -8 v -8 z M 60 110 h 8 v 8 h -8 v -8 z M 70 110 h 8 v 8 h -8 v -8 z M 80 110 h 8 v 8 h -8 v -8 z M 90 110 h 8 v 8 h -8 v -8 z M 100 110 h 8 v 8 h -8 v -8 z M 110 110 h 8 v 8 h -8 v -8 z M 120 110 h 8 v 8 h -8 v -8 z M 130 110 h 8 v 8 h -8 v -8 z M 140 110 h 8 v 8 h -8 v -8 z M 150 110 h 8 v 8 h -8 v -8 z M 160 110 h 8 v 8 h -8 v -8 z M 170 110 h 8 v 8 h -8 v -8 z M 180 110 h 8 v 8 h -8 v -8 z M 190 110 h 8 v 8 h -8 v -8 z M 200 110 h 8 v 8 h -8 v -8 z M 210 110 h 8 v 8 h -8 v -8 z M 220 110 h 8 v 8 h -8 v -8 z M 230 110 h 8 v 8 h -8 v -8 z M 240 110 h 8 v 8 h -8 v -8 z M 250 110 h 8 v 8 h -8 v -8 z M 260 110 h 8 v 8 h -8 v -8 z M 270 110 h 8 v 8 h -8 v -8 z M 280 110 h 8 v 8 h -8 v -8 z M 290 110 h 8 v 8 h -8 v -8 z M 0 120 h 8 v 8 h -8 v -8 z M 10 120 h 8 v 8 h -8 v -8 z M 20 120 h 8 v 8 h -8 v -8 z M 30 120 h 8 v 8 h -8 v -8 z M 40 120 h 8 v 8 h -8 v -8 z M 50 120 h 8 v 8 h -8 v -8 z M 60 120 h 8 v 8 h -8 v -8 z M 70 120 h 8 v 8 h -8 v -8 z M 80 120 h 8 v 8 h -8 v -8 z M 90 120 h 8 v 8 h -8 v -8 z M 100 120 h 8 v 8 h -8 v -8 z M 110 120 h 8 v 8 h -8 v -8 z M 120 120 h 8 v 8 h -8 v -8 z M 130 120 h 8 v 8 h -8 v -8 z M 140 120 h 8 v 8 h -8 v -8 z M 150 120 h 8 v 8 h -8 v -8 z M 160 120 h 8 v 8 h -8 v -8 z M 170 120 h 8 v 8 h -8 v -8 z M 180 120 h 8 v 8 h -8 v -8 z M 190 120 h 8 v 8 h -8 v -8 z M 200 120 h 8 v 8 h -8 v -8 z M 210 120 h 8 v 8 h -8 v -8 z M 220 120 h 8 v 8 h -8 v -8 z M 230 120 h 8 v 8 h -8 v -8 z M 240 120 h 8 v 8 h -8 v -8 z M 250 120 h 8 v 8 h -8 v -8 z M 260 120 h 8 v 8 h -8 v -8 z M 270 120 h 8 v 8 h -8 v -8 z M 280 120 h 8 v 8 h -8 v -8 z M 290 120 h 8 v 8 h -8 v -8 z M 0 130 h 8 v 8 h -8 v -8 z M 10 130 h 8 v 8 h -8 v -8 z M 20 130 h 8 v 8 h -8 v -8 z M 30 130 h 8 v 8 h -8 v -8 z M 40 130 h 8 v 8 h -8 v -8 z M 50 130 h 8 v 8 h -8 v -8 z M 60 130 h 8 v 8 h -8 v -8 z M 70 130 h 8 v 8 h -8 v -8 z M 80 130 h 8 v 8 h -8 v -8 z M 90 130 h 8 v 8 h -8 v -8 z M 100 130 h 8 v 8 h -8 v -8 z M 110 130 h 8 v 8 h -8 v -8 z M 120 130 h 8 v 8 h -8 v -8 z M 130 130 h 8 v 8 h -8 v -8 z M 140 130 h 8 v 8 h -8 v -8 z M 150 130 h 8 v 8 h -8 v -8 z M 160 130 h 8 v 8 h -8 v -8 z M 170 130 h 8 v 8 h -8 v -8 z M 180 130 h 8 v 8 h -8 v -8 z M 190 130 h 8 v 8 h -8 v -8 z M 200 130 h 8 v 8 h -8 v -8 z M 210 130 h 8 v 8 h -8 v -8 z M 220 130 h 8 v 8 h -8 v -8 z M 230 130 h 8 v 8 h -8 v -8 z M 240 130 h 8 v 8 h -8 v -8 z M 250 130 h 8 v 8 h -8 v -8 z M 260 130 h 8 v 8 h -8 v -8 z M 270 130 h 8 v 8 h -8 v -8 z M 280 130 h 8 v 8 h -8 v -8 z M 290 130 h 8 v 8 h -8 v -8 z M 0 140 h 8 v 8 h -8 v -8 z M 10 140 h 8 v 8 h -8 v -8 z M 20 140 h 8 v 8 h -8 v -8 z M 30 140 h 8 v 8 h -8 v -8 z M 40 140 h 8 v 8 h -8 v -8 z M 50 140 h 8 v 8 h -8 v -8 z M 60 140 h 8 v 8 h -8 v -8 z M 70 140 h 8 v 8 h -8 v -8 z M 80 140 h 8 v 8 h -8 v -8 z M 90 140 h 8 v 8 h -8 v -8 z M 100 140 h 8 v 8 h -8 v -8 z M 110 140 h 8 v 8 h -8 v -8 z M 120 140 h 8 v 8 h -8 v -8 z M 130 140 h 8 v 8 h -8 v -8 z M 140 140 h 8 v 8 h -8 v -8 z M 150 140 h 8 v 8 h -8 v -8 z M 160 140 h 8 v 8 h -8 v -8 z M 170 140 h 8 v 8 h -8 v -8 z M 180 140 h 8 v 8 h -8 v -8 z M 190 140 h 8 v 8 h -8 v -8 z M 200 140 h 8 v 8 h -8 v -8 z M 210 140 h 8 v 8 h -8 v -8 z M 220 140 h 8 v 8 h -8 v -8 z M 230 140 h 8 v 8 h -8 v -8 z M 240 140 h 8 v 8 h -8 v -8 z M 250 140 h 8 v 8 h -8 v -8 z M 260 140 h 8 v 8 h -8 v -8 z M 270 140 h 8 v 8 h -8 v -8 z M 280 140 h 8 v 8 h -8 v -8 z M 290 140 h 8 v 8 h -8 v -8 z M 0 150 h 8 v 8 h -8 v -8 z M 10 150 h 8 v 8 h -8 v -8 z M 20 150 h 8 v 8 h -8 v -8 z M 30 150 h 8 v 8 h -8 v -8 z M 40 150 h 8 v 8 h -8 v -8 z M 50 150 h 8 v 8 h -8 v -8 z M 60 150 h 8 v 8 h -8 v -8 z M 70 150 h 8 v 8 h -8 v -8 z M 80 150 h 8 v 8 h -8 v -8 z M 90 150 h 8 v 8 h -8 v -8 z M 100 150 h 8 v 8 h -8 v -8 z M 110 150 h 8 v 8 h -8 v -8 z M 120 150 h 8 v 8 h -8 v -8 z M 130 150 h 8 v 8 h -8 v -8 z M 140 150 h 8 v 8 h -8 v -8 z M 150 150 h 8 v 8 h -8 v -8 z M 160 150 h 8 v 8 h -8 v -8 z M 170 150 h 8 v 8 h -8 v -8 z M 180 150 h 8 v 8 h -8 v -8 z M 190 150 h 8 v 8 h -8 v -8 z M 200 150 h 8 v 8 h -8 v -8 z M 210 150 h 8 v 8 h -8 v -8 z M 220 150 h 8 v 8 h -8 v -8 z M 230 150 h 8 v 8 h -8 v -8 z M 240 150 h 8 v 8 h -8 v -8 z M 250 150 h 8 v 8 h -8 v -8 z M 260 150 h 8 v 8 h -8 v -8 z M 270 150 h 8 v 8 h -8 v -8 z M 280 150 h 8 v 8 h -8 v -8 z M 290 150 h 8 v 8 h -8 v -8 z M 0 160 h 8 v 8 h -8 v -8 z M 10 160 h 8 v 8 h -8 v -8 z M 20 160 h 8 v 8 h -8 v -8 z M 30 160 h 8 v 8 h -8 v -8 z M 40 160 h 8 v 8 h -8 v -8 z M 50 160 h 8 v 8 h -8 v -8 z M 60 160 h 8 v 8 h -8 v -8 z M 70 160 h 8 v 8 h -8 v -8 z M 80 160 h 8 v 8 h -8 v -8 z M 90 160 h 8 v 8 h -8 v -8 z M 100 160 h 8 v 8 h -8 v -8 z M 110 160 h 8 v 8 h -8 v -8 z M 120 160 h 8 v 8 h -8 v -8 z M 130 160 h 8 v 8 h -8 v -8 z M 140 160 h 8 v 8 h -8 v -8 z M 150 160 h 8 v 8 h -8 v -8 z M 160 160 h 8 v 8 h -8 v -8 z M 170 160 h 8 v 8 h -8 v -8 z M 180 160 h 8 v 8 h -8 v -8 z M 190 160 h 8 v 8 h -8 v -8 z M 200 160 h 8 v 8 h -8 v -8 z M 210 160 h 8 v 8 h -8 v -8 z M 220 160 h 8 v 8 h -8 v -8 z M 230 160 h 8 v 8 h -8 v -8 z M 240 160 h 8 v 8 h -8 v -8 z M 250 160 h 8 v 8 h -8 v -8 z M 260 160 h 8 v 8 h -8 v -8 z M 270 160 h 8 v 8 h -8 v -8 z M 280 160 h 8 v 8 h -8 v -8 z M 290 160 h 8 v 8 h -8 v -8 z M 0 170 h 8 v 8 h -8 v -8 z M 10 170 h 8 v 8 h -8 v -8 z M 20 170 h 8 v 8 h -8 v -8 z M 30 170 h 8 v 8 h -8 v -8 z M 40 170 h 8 v 8 h -8 v -8 z M 50 170 h 8 v 8 h -8 v -8 z M 60 170 h 8 v 8 h -8 v -8 z M 70 170 h 8 v 8 h -8 v -8 z M 80 170 h 8 v 8 h -8 v -8 z M 90 170 h 8 v 8 h -8 v -8 z M 100 170 h 8 v 8 h -8 v -8 z M 110 170 h 8 v 8 h -8 v -8 z M 120 170 h 8 v 8 h -8 v -8 z M 130 170 h 8 v 8 h -8 v -8 z M 140 170 h 8 v 8 h -8 v -8 z M 150 170 h 8 v 8 h -8 v -8 z M 160 170 h 8 v 8 h -8 v -8 z M 170 170 h 8 v 8 h -8 v -8 z M 180 170 h 8 v 8 h -8 v -8 z M 190 170 h 8 v 8 h -8 v -8 z M 200 170 h 8 v 8 h -8 v -8 z M 210 170 h 8 v 8 h -8 v -8 z M 220 170 h 8 v 8 h -8 v -8 z M 230 170 h 8 v 8 h -8 v -8 z M 240 170 h 8 v 8 h -8 v -8 z M 250 170 h 8 v 8 h -8 v -8 z M 260 170 h 8 v 8 h -8 v -8 z M 270 170 h 8 v 8 h -8 v -8 z M 280 170 h 8 v 8 h -8 v -8 z M 290 170 h 8 v 8 h -8 v -8 z M 0 180 h 8 v 8 h -8 v -8 z M 10 180 h 8 v 8 h -8 v -8 z M 20 180 h 8 v 8 h -8 v -8 z M 30 180 h 8 v 8 h -8 v -8 z M 40 180 h 8 v 8 h -8 v -8 z M 50 180 h 8 v 8 h -8 v -8 z M 60 180 h 8 v 8 h -8 v -8 z M 70 180 h 8 v 8 h -8 v -8 z M 80 180 h 8 v 8 h -8 v -8 z M 90 180 h 8 v 8 h -8 v -8 z M 100 180 h 8 v 8 h -8 v -8 z M 110 180 h 8 v 8 h -8 v -8 z M 120 180 h 8 v 8 h -8 v -8 z M 130 180 h 8 v 8 h -8 v -8 z M 140 180 h 8 v 8 h -8 v -8 z M 150 180 h 8 v 8 h -8 v -8 z M 160 180 h 8 v 8 h -8 v -8 z M 170 180 h 8 v 8 h -8 v -8 z M 180 180 h 8 v 8 h -8 v -8 z M 190 180 h 8 v 8 h -8 v -8 z M 200 180 h 8 v 8 h -8 v -8 z M 210 180 h 8 v 8 h -8 v -8 z M 220 180 h 8 v 8 h -8 v -8 z M 230 180 h 8 v 8 h -8 v -8 z M 240 180 h 8 v 8 h -8 v -8 z M 250 180 h 8 v 8 h -8 v -8 z M 260 180 h 8 v 8 h -8 v -8 z M 270 180 h 8 v 8 h -8 v -8 z M 280 180 h 8 v 8 h -8 v -8 z M 290 180 h 8 v 8 h -8 v -8 z M 0 190 h 8 v 8 h -8 v -8 z M 10 190 h 8 v 8 h -8 v -8 z M 20 190 h 8 v 8 h -8 v -8 z M 30 190 h 8 v 8 h -8 v -8 z M 40 190 h 8 v 8 h -8 v -8 z M 50 190 h 8 v 8 h -8 v -8 z M 60 190 h 8 v 8 h -8 v -8 z M 70 190 h 8 v 8 h -8 v -8 z M 80 190 h 8 v 8 h -8 v -8 z M 90 190 h 8 v 8 h -8 v -8 z M 100 190 h 8 v 8 h -8 v -8 z M 110 190 h 8 v 8 h -8 v -8 z M 120 190 h 8 v 8 h -8 v -8 z M 130 190 h 8 v 8 h -8 v -8 z M 140 190 h 8 v 8 h -8 v -8 z M 150 190 h 8 v 8 h -8 v -8 z M 160 190 h 8 v 8 h -8 v -8 z M 170 190 h 8 v 8 h -8 v -8 z M 180 190 h 8 v 8 h -8 v -8 z M 190 190 h 8 v 8 h -8 v -8 z M 200 190 h 8 v 8 h -8 v -8 z M 210 190 h 8 v 8 h -8 v -8 z M 220 190 h 8 v 8 h -8 v -8 z M 230 190 h 8 v 8 h -8 v -8 z M 240 190 h 8 v 8 h -8 v -8 z M 250 190 h 8 v 8 h -8 v -8 z M 260 190 h 8 v 8 h -8 v -8 z M 270 190 h 8 v 8 h -8 v -8 z M 280 190 h 8 v 8 h -8 v -8 z M 290 190 h 8 v 8 h -8 v -8 z"/>
  <path fill="rgb(255,255,0)" d="M 0 200 h 8 v 8 h -8 v -8 z"/>
  <path fill="#d0d0d0" d="M 10 200 h 8 v 8 h -8 v -8 z M 20 200 h 8 v 8 h -8 v -8 z M 30 200 h 8 v 8 h -8 v -8 z M 40 200 h 8 v 8 h -8 v -8 z M 50 200 h 8 v 8 h -8 v -8 z M 60 200 h 8 v 8 h -8 v -8 z M 70 200 h 8 v 8 h -8 v -8 z M 80 200 h 8 v 8 h -8 v -8 z M 90 200 h 8 v 8 h -8 v -8 z M 100 200 h 8 v 8 h -8 v -8 z M 110 200 h 8 v 8 h -8 v -8 z M 120 200 h 8 v 8 h -8 v -8 z M 130 200 h 8 v 8 h -8 v -8 z M 140 200 h 8 v 8 h -8 v -8 z M 150 200 h 8 v 8 h -8 v -8 z M 160 200 h 8 v 8 h -8 v -8 z M 170 200 h 8 v 8 h -8 v -8 z M 180 200 h 8 v 8 h -8 v -8 z M 190 200 h 8 v 8 h -8 v -8 z M 200 200 h 8 v 8 h -8 v -8 z M 210 200 h 8 v 8 h -8 v -8 z M 220 200 h 8 v 8 h -8 v -8 z M 230 200 h 8 v 8 h -8 v -8 z M 240 200 h 8 v 8 h -8 v -8 z M 250 200 h 8 v 8 h -8 v -8 z M 260 200 h 8 v 8 h -8 v -8 z M 270 200 h 8 v 8 h -8 v -8 z M 280 200 h 8 v 8 h -8 v -8 z M 290 200 h 8 v 8 h -8 v -8 z M 0 210 h 8 v 8 h -8 v -8 z M 10 210 h 8 v 8 h -8 v -8 z M 20 210 h 8 v 8 h -8 v -8 z M 30 210 h 8 v 8 h -8 v -8 z M 40 210 h 8 v 8 h -8 v -8 z M 50 210 h 8 v 8 h -8 v -8 z M 60 210 h 8 v 8 h -8 v -8 z M 70 210 h 8 v 8 h -8 v -8 z M 80 210 h 8 v 8 h -8 v -8 z M 90 210 h 8 v 8 h -8 v -8 z M 100 210 h 8 v 8 h -8 v -8 z M 110 210 h 8 v 8 h -8 v -8 z M 120 210 h 8 v 8 h -8 v -8 z M 130 210 h 8 v 8 h -8 v -8 z M 140 210 h 8 v 8 h -8 v -8 z M 150 210 h 8 v 8 h -8 v -8 z M 160 210 h 8 v 8 h -8 v -8 z M 170 210 h 8 v 8 h -8 v -8 z M 180 210 h 8 v 8 h -8 v -8 z M 190 210 h 8 v 8 h -8 v -8 z M 200 210 h 8 v 8 h -8 v -8 z M 210 210 h 8 v 8 h -8 v -8 z M 220 210 h 8 v 8 h -8 v -8 z M 230 210 h 8 v 8 h -8 v -8 z M 240 210 h 8 v 8 h -8 v -8 z M 250 210 h 8 v 8 h -8 v -8 z M 260 210 h 8 v 8 h -8 v -8 z M 270 210 h 8 v 8 h -8 v -8 z M 280 210 h 8 v 8 h -8 v -8 z M 290 210 h 8 v 8 h -8 v -8 z M 0 220 h 8 v 8 h -8 v -8 z M 10 220 h 8 v 8 h -8 v -8 z M 20 220 h 8 v 8 h -8 v -8 z M 30 220 h 8 v 8 h -8 v -8 z M 40 220 h 8 v 8 h -8 v -8 z M 50 220 h 8 v 8 h -8 v -8 z M 60 220 h 8 v 8 h -8 v -8 z M 70 220 h 8 v 8 h -8 v -8 z M 80 220 h 8 v 8 h -8 v -8 z M 90 220 h 8 v 8 h -8 v -8 z M 100 220 h 8 v 8 h -8 v -8 z M 110 220 h 8 v 8 h -8 v -8 z M 120 220 h 8 v 8 h -8 v -8 z M 130 220 h 8 v 8 h -8 v -8 z M 140 220 h 8 v 8 h -8 v -8 z M 150 220 h 8 v 8 h -8 v -8 z M 160 220 h 8 v 8 h -8 v -8 z M 170 220 h 8 v 8 h -8 v -8 z M 180 220 h 8 v 8 h -8 v -8 z M 190 220 h 8 v 8 h -8 v -8 z M 200 220 h 8 v 8 h -8 v -8 z M 210 220 h 8 v 8 h -8 v -8 z M 220 220 h 8 v 8 h -8 v -8 z M 230 220 h 8 v 8 h -8 v -8 z M 240 220 h 8 v 8 h -8 v -8 z M 250 220 h 8 v 8 h -8 v -8 z M 260 220 h 8 v 8 h -8 v -8 z M 270 220 h 8 v 8 h -8 v -8 z M 280 220 h 8 v 8 h -8 v -8 z M 290 220 h 8 v 8 h -8 v -8 z M 0 230 h 8 v 8 h -8 v -8 z M 10 230 h 8 v 8 h -8 v -8 z M 20 230 h 8 v 8 h -8 v -8 z M 30 230 h 8 v 8 h -8 v -8 z M 40 230 h 8 v 8 h -8 v -8 z M 50 230 h 8 v 8 h -8 v -8 z M 60 230 h 8 v 8 h -8 v -8 z M 70 230 h 8 v 8 h -8 v -8 z M 80 230 h 8 v 8 h -8 v -8 z M 90 230 h 8 v 8 h -8 v -8 z M 100 230 h 8 v 8 h -8 v -8 z M 110 230 h 8 v 8 h -8 v -8 z M 120 230 h 8 v 8 h -8 v -8 z M 130 230 h 8 v 8 h -8 v -8 z M 140 230 h 8 v 8 h -8 v -8 z M 150 230 h 8 v 8 h -8 v -8 z M 160 230 h 8 v 8 h -8 v -8 z M 170 230 h 8 v 8 h -8 v -8 z M 180 230 h 8 v 8 h -8 v -8 z M 190 230 h 8 v 8 h -8 v -8 z M 200 230 h 8 v 8 h -8 v -8 z M 210 230 h 8 v 8 h -8 v -8 z M 220 230 h 8 v 8 h -8 v -8 z M 230 230 h 8 v 8 h -8 v -8 z M 240 230 h 8 v 8 h -8 v -8 z M 250 230 h 8 v 8 h -8 v -8 z M 260 230 h 8 v 8 h -8 v -8 z M 270 230 h 8 v 8 h -8 v -8 z M 280 230 h 8 v 8 h -8 v -8 z M 290 230 h 8 v 8 h -8 v -8 z M 0 240 h 8 v 8 h -8 v -8 z M 10 240 h 8 v 8 h -8 v -8 z M 20 240 h 8 v 8 h -8 v -8 z M 30 240 h 8 v 8 h -8 v -8 z M 40 240 h 8 v 8 h -8 v -8 z M 50 240 h 8 v 8 h -8 v -8 z M 60 240 h 8 v 8 h -8 v -8 z M 70 240 h 8 v 8 h -8 v -8 z M 80 240 h 8 v 8 h -8 v -8 z M 90 240 h 8 v 8 h -8 v -8 z M 100 240 h 8 v 8 h -8 v -8 z M 110 240 h 8 v 8 h -8 v -8 z M 120 240 h 8 v 8 h -8 v -8 z M 130 240 h 8 v 8 h -8 v -8 z M 140 240 h 8 v 8 h -8 v -8 z M 150 240 h 8 v 8 h -8 v -8 z M 160 240 h 8 v 8 h -8 v -8 z M 170 240 h 8 v 8 h -8 v -8 z M 180 240 h 8 v 8 h -8 v -8 z M 190 240 h 8 v 8 h -8 v -8 z M 200 240 h 8 v 8 h -8 v -8 z M 210 240 h 8 v 8 h -8 v -8 z M 220 240 h 8 v 8 h -8 v -8 z M 230 240 h 8 v 8 h -8 v -8 z M 240 240 h 8 v 8 h -8 v -8 z M 250 240 h 8 v 8 h -8 v -8 z M 260 240 h 8 v 8 h -8 v -8 z M 270 240 h 8 v 8 h -8 v -8 z M 280 240 h 8 v 8 h -8 v -8 z M 290 240 h 8 v 8 h -8 v -8 z M 0 250 h 8 v 8 h -8 v -8 z M 10 250 h 8 v 8 h -8 v -8 z M 20 250 h 8 v 8 h -8 v -8 z M 30 250 h 8 v 8 h -8 v -8 z M 40 250 h 8 v 8 h -8 v -8 z M 50 250 h 8 v 8 h -8 v -8 z M 60 250 h 8 v 8 h -8 v -8 z M 70 250 h 8 v 8 h -8 v -8 z M 80 250 h 8 v 8 h -8 v -8 z M 90 250 h 8 v 8 h -8 v -8 z M 100 250 h 8 v 8 h -8 v -8 z M 110 250 h 8 v 8 h -8 v -8 z M 120 250 h 8 v 8 h -8 v -8 z M 130 250 h 8 v 8 h -8 v -8 z M 140 250 h 8 v 8 h -8 v -8 z M 150 250 h 8 v 8 h -8 v -8 z M 160 250 h 8 v 8 h -8 v -8 z M 170 250 h 8 v 8 h -8 v -8 z M 180 250 h 8 v 8 h -8 v -8 z M 190 250 h 8 v 8 h -8 v -8 z M 200 250 h 8 v 8 h -8 v -8 z M 210 250 h 8 v 8 h -8 v -8 z M 220 250 h 8 v 8 h -8 v -8 z M 230 250 h 8 v 8 h -8 v -8 z M 240 250 h 8 v 8 h -8 v -8 z M 250 250 h 8 v 8 h -8 v -8 z M 260 250 h 8 v 8 h -8 v -8 z M 270 250 h 8 v 8 h -8 v -8 z M 280 250 h 8 v 8 h -8 v -8 z M 290 250 h 8 v 8 h -8 v -8 z M 0 260 h 8 v 8 h -8 v -8 z M 10 260 h 8 v 8 h -8 v -8 z M 20 260 h 8 v 8 h -8 v -8 z M 30 260 h 8 v 8 h -8 v -8 z M 40 260 h 8 v 8 h -8 v -8 z M 50 260 h 8 v 8 h -8 v -8 z M 60 260 h 8 v 8 h -8 v -8 z M 70 260 h 8 v 8 h -8 v -8 z M 80 260 h 8 v 8 h -8 v -8 z M 90 260 h 8 v 8 h -8 v -8 z M 100 260 h 8 v 8 h -8 v -8 z M 110 260 h 8 v 8 h -8 v -8 z M 120 260 h 8 v 8 h -8 v -8 z M 130 260 h 8 v 8 h -8 v -8 z M 140 260 h 8 v 8 h -8 v -8 z M 150 260 h 8 v 8 h -8 v -8 z M 160 260 h 8 v 8 h -8 v -8 z M 170 260 h 8 v 8 h -8 v -8 z M 180 260 h 8 v 8 h -8 v -8 z M 190 260 h 8 v 8 h -8 v -8 z M 200 260 h 8 v 8 h -8 v -8 z M 210 260 h 8 v 8 h -8 v -8 z M 220 260 h 8 v 8 h -8 v -8 z M 230 260 h 8 v 8 h -8 v -8 z M 240 260 h 8 v 8 h -8 v -8 z M 250 260 h 8 v 8 h -8 v -8 z M 260 260 h 8 v 8 h -8 v -8 z M 270 260 h 8 v 8 h -8 v -8 z M 280 260 h 8 v 8 h -8 v -8 z M 290 260 h 8 v 8 h -8 v -8 z M 0 270 h 8 v 8 h -8 v -8 z M 10 270 h 8 v 8 h -8 v -8 z M 20 270 h 8 v 8 h -8 v -8 z M 30 270 h 8 v 8 h -8 v -8 z M 40 270 h 8 v 8 h -8 v -8 z M 50 270 h 8 v 8 h -8 v -8 z M 60 270 h 8 v 8 h -8 v -8 z M 70 270 h 8 v 8 h -8 v -8 z M 80 270 h 8 v 8 h -8 v -8 z M 90 270 h 8 v 8 h -8 v -8 z M 100 270 h 8 v 8 h -8 v -8 z M 110 270 h 8 v 8 h -8 v -8 z M 120 270 h 8 v 8 h -8 v -8 z M 130 270 h 8 v 8 h -8 v -8 z M 140 270 h 8 v 8 h -8 v -8 z M 150 270 h 8 v 8 h -8 v -8 z M 160 270 h 8 v 8 h -8 v -8 z M 170 270 h 8 v 8 h -8 v -8 z M 180 270 h 8 v 8 h -8 v -8 z M 190 270 h 8 v 8 h -8 v -8 z M 200 270 h 8 v 8 h -8 v -8 z M 210 270 h 8 v 8 h -8 v -8 z M 220 270 h 8 v 8 h -8 v -8 z M 230 270 h 8 v 8 h -8 v -8 z M 240 270 h 8 v 8 h -8 v -8 z M 250 270 h 8 v 8 h -8 v -8 z M 260 270 h 8 v 8 h -8 v -8 z M 270 270 h 8 v 8 h -8 v -8 z M 280 270 h 8 v 8 h -8 v -8 z M 290 270 h 8 v 8 h -8 v -8 z M 0 280 h 8 v 8 h -8 v -8 z M 10 280 h 8 v 8 h -8 v -8 z M 20 280 h 8 v 8 h -8 v -8 z M 30 280 h 8 v 8 h -8 v -8 z M 40 280 h 8 v 8 h -8 v -8 z M 50 280 h 8 v 8 h -8 v -8 z M 60 280 h 8 v 8 h -8 v -8 z M 70 280 h 8 v 8 h -8 v -8 z M 80 280 h 8 v 8 h -8 v -8 z M 90 280 h 8 v 8 h -8 v -8 z M 100 280 h 8 v 8 h -8 v -8 z M 110 280 h 8 v 8 h -8 v -8 z M 120 280 h 8 v 8 h -8 v -8 z M 130 280 h 8 v 8 h -8 v -8 z M 140 280 h 8 v 8 h -8 v -8 z M 150 280 h 8 v 8 h -8 v -8 z M 160 280 h 8 v 8 h -8 v -8 z M 170 280 h 8 v 8 h -8 v -8 z M 180 280 h 8 v 8 h -8 v -8 z M 190 280 h 8 v 8 h -8 v -8 z M 200 280 h 8 v 8 h -8 v -8 z M 210 280 h 8 v 8 h -8 v -8 z M 220 280 h 8 v 8 h -8 v -8 z M 230 280 h 8 v 8 h -8 v -8 z M 240 280 h 8 v 8 h -8 v -8 z M 250 280 h 8 v 8 h -8 v -8 z M 260 280 h 8 v 8 h -8 v -8 z M 270 280 h 8 v 8 h -8 v -8 z M 280 280 h 8 v 8 h -8 v -8 z M 290 280 h 8 v 8 h -8 v -8 z M 0 290 h 8 v 8 h -8 v -8 z M 10 290 h 8 v 8 h -8 v -8 z M 20 290 h 8 v 8 h -8 v -8 z M 30 290 h 8 v 8 h -8 v -8 z M 40 290 h 8 v 8 h -8 v -8 z M 50 290 h 8 v 8 h -8 v -8 z M 60 290 h 8 v 8 h -8 v -8 z M 70 290 h 8 v 8 h -8 v -8 z M 80 290 h 8 v 8 h -8 v -8 z M 90 290 h 8 v 8 h -8 v -8 z M 100 290 h 8 v 8 h -8 v -8 z M 110 290 h 8 v 8 h -8 v -8 z M 120 290 h 8 v 8 h -8 v -8 z M 130 290 h 8 v 8 h -8 v -8 z M 140 290 h 8 v 8 h -8 v -8 z M 150 290 h 8 v 8 h -8 v -8 z M 160 290 h 8 v 8 h -8 v -8 z M 170 290 h 8 v 8 h -8 v -8 z M 180 290 h 8 v 8 h -8 v -8 z M 190 290 h 8 v 8 h -8 v -8 z M 200 290 h 8 v 8 h -8 v -8 z M 210 290 h 8 v 8 h -8 v -8 z M 220 290 h 8 v 8 h -8 v -8 z M 230 290 h 8 v 8 h -8 v -8 z M 240 290 h 8 v 8 h -8 v -8 z M 250 290 h 8 v 8 h -8 v -8 z M 260 290 h 8 v 8 h -8 v -8 z M 270 290 h 8 v 8 h -8 v -8 z M 280 290 h 8 v 8 h -8 v -8 z M 290 290 h 8 v 8 h -8 v -8 z M 0 300 h 8 v 8 h -8 v -8 z M 10 300 h 8 v 8 h -8 v -8 z M 20 300 h 8 v 8 h -8 v -8 z M 30 300 h 8 v 8 h -8 v -8 z M 40 300 h 8 v 8 h -8 v -8 z M 50 300 h 8 v 8 h -8 v -8 z M 60 300 h 8 v 8 h -8 v -8 z M 70 300 h 8 v 8 h -8 v -8 z M 80 300 h 8 v 8 h -8 v -8 z M 90 300 h 8 v 8 h -8 v -8 z M 100 300 h 8 v 8 h -8 v -8 z M 110 300 h 8 v 8 h -8 v -8 z M 120 300 h 8 v 8 h -8 v -8 z M 130 300 h 8 v 8 h -8 v -8 z M 140 300 h 8 v 8 h -8 v -8 z M 150 300 h 8 v 8 h -8 v -8 z M 160 300 h 8 v 8 h -8 v -8 z M 170 300 h 8 v 8 h -8 v -8 z M 180 300 h 8 v 8 h -8 v -8 z M 190 300 h 8 v 8 h -8 v -8 z M 200 300 h 8 v 8 h -8 v -8 z M 210 300 h 8 v 8 h -8 v -8 z M 220 300 h 8 v 8 h -8 v -8 z M 230 300 h 8 v 8 h -8 v -8 z M 240 300 h 8 v 8 h -8 v -8 z M 250 300 h 8 v 8 h -8 v -8 z M 260 300 h 8 v 8 h -8 v -8 z M 270 300 h 8 v 8 h -8 v -8 z M 280 300 h 8 v 8 h -8 v -8 z M 290 300 h 8 v 8 h -8 v -8 z M 0 310 h 8 v 8 h -8 v -8 z M 10 310 h 8 v 8 h -8 v -8 z M 20 310 h 8 v 8 h -8 v -8 z M 30 310 h 8 v 8 h -8 v -8 z M 40 310 h 8 v 8 h -8 v -8 z M 50 310 h 8 v 8 h -8 v -8 z M 60 310 h 8 v 8 h -8 v -8 z M 70 310 h 8 v 8 h -8 v -8 z M 80 310 h 8 v 8 h -8 v -8 z M 90 310 h 8 v 8 h -8 v -8 z M 100 310 h 8 v 8 h -8 v -8 z M 110 310 h 8 v 8 h -8 v -8 z M 120 310 h 8 v 8 h -8 v -8 z M 130 310 h 8 v 8 h -8 v -8 z M 140 310 h 8 v 8 h -8 v -8 z M 150 310 h 8 v 8 h -8 v -8 z M 160 310 h 8 v 8 h -8 v -8 z M 170 310 h 8 v 8 h -8 v -8 z M 180 310 h 8 v 8 h -8 v -8 z M 190 310 h 8 v 8 h -8 v -8 z M 200 310 h 8 v 8 h -8 v -8 z M 210 310 h 8 v 8 h -8 v -8 z M 220 310 h 8 v 8 h -8 v -8 z M 230 310 h 8 v 8 h -8 v -8 z M 240 310 h 8 v 8 h -8 v -8 z M 250 310 h 8 v 8 h -8 v -8 z M 260 310 h 8 v 8 h -8 v -8 z M 270 310 h 8 v 8 h -8 v -8 z M 280 310 h 8 v 8 h -8 v -8 z M 290 310 h 8 v 8 h -8 v -8 z M 0 320 h 8 v 8 h -8 v -8 z M 10 320 h 8 v 8 h -8 v -8 z M 20 320 h 8 v 8 h -8 v -8 z M 30 320 h 8 v 8 h -8 v -8 z M 40 320 h 8 v 8 h -8 v -8 z M 50 320 h 8 v 8 h -8 v -8 z M 60 320 h 8 v 8 h -8 v -8 z M 70 320 h 8 v 8 h -8 v -8 z M 80 320 h 8 v 8 h -8 v -8 z M 90 320 h 8 v 8 h -8 v -8 z M 100 320 h 8 v 8 h -8 v -8 z M 110 320 h 8 v 8 h -8 v -8 z M 120 320 h 8 v 8 h -8 v -8 z M 130 320 h 8 v 8 h -8 v -8 z M 140 320 h 8 v 8 h -8 v -8 z M 150 320 h 8 v 8 h -8 v -8 z M 160 320 h 8 v 8 h -8 v -8 z M 170 320 h 8 v 8 h -8 v -8 z M 180 320 h 8 v 8 h -8 v -8 z M 190 320 h 8 v 8 h -8 v -8 z M 200 320 h 8 v 8 h -8 v -8 z M 210 320 h 8 v 8 h -8 v -8 z M 220 320 h 8 v 8 h -8 v -8 z M 230 320 h 8 v 8 h -8 v -8 z M 240 320 h 8 v 8 h -8 v -8 z M 250 320 h 8 v 8 h -8 v -8 z M 260 320 h 8 v 8 h -8 v -8 z M 270 320 h 8 v 8 h -8 v -8 z M 280 320 h 8 v 8 h -8 v -8 z M 290 320 h 8 v 8 h -8 v -8 z M 0 330 h 8 v 8 h -8 v -8 z M 10 330 h 8 v 8 h -8 v -8 z M 20 330 h 8 v 8 h -8 v -8 z M 30 330 h 8 v 8 h -8 v -8 z M 40 330 h 8 v 8 h -8 v -8 z M 50 330 h 8 v 8 h -8 v -8 z M 60 330 h 8 v 8 h -8 v -8 z M 70 330 h 8 v 8 h -8 v -8 z M 80 330 h 8 v 8 h -8 v -8 z M 90 330 h 8 v 8 h -8 v -8 z M 100 330 h 8 v 8 h -8 v -8 z M 110 330 h 8 v 8 h -8 v -8 z M 120 330 h 8 v 8 h -8 v -8 z M 130 330 h 8 v 8 h -8 v -8 z M 140 330 h 8 v 8 h -8 v -8 z M 150 330 h 8 v 8 h -8 v -8 z M 160 330 h 8 v 8 h -8 v -8 z M 170 330 h 8 v 8 h -8 v -8 z M 180 330 h 8 v 8 h -8 v -8 z M 190 330 h 8 v 8 h -8 v -8 z M 200 330 h 8 v 8 h -8 v -8 z M 210 330 h 8 v 8 h -8 v -8 z M 220 330 h 8 v 8 h -8 v -8 z M 230 330 h 8 v 8 h -8 v -8 z M 240 330 h 8 v 8 h -8 v -8 z M 250 330 h 8 v 8 h -8 v -8 z M 260 330 h 8 v 8 h -8 v -8 z M 270 330 h 8 v 8 h -8 v -8 z M 280 330 h 8 v 8 h -8 v -8 z M 290 330 h 8 v 8 h -8 v -8 z M 0 340 h 8 v 8 h -8 v -8 z M 10 340 h 8 v 8 h -8 v -8 z M 20 340 h 8 v 8 h -8 v -8 z M 30 340 h 8 v 8 h -8 v -8 z M 40 340 h 8 v 8 h -8 v -8 z M 50 340 h 8 v 8 h -8 v -8 z M 60 340 h 8 v 8 h -8 v -8 z M 70 340 h 8 v 8 h -8 v -8 z M 80 340 h 8 v 8 h -8 v -8 z M 90 340 h 8 v 8 h -8 v -8 z M 100 340 h 8 v 8 h -8 v -8 z M 110 340 h 8 v 8 h -8 v -8 z M 120 340 h 8 v 8 h -8 v -8 z M 130 340 h 8 v 8 h -8 v -8 z M 140 340 h 8 v 8 h -8 v -8 z M 150 340 h 8 v 8 h -8 v -8 z M 160 340 h 8 v 8 h -8 v -8 z M 170 340 h 8 v 8 h -8 v -8 z M 180 340 h 8 v 8 h -8 v -8 z M 190 340 h 8 v 8 h -8 v -8 z M 200 340 h 8 v 8 h -8 v -8 z M 210 340 h 8 v 8 h -8 v -8 z M 220 340 h 8 v 8 h -8 v -8 z M 230 340 h 8 v 8 h -8 v -8 z M 240 340 h 8 v 8 h -8 v -8 z M 250 340 h 8 v 8 h -8 v -8 z M 260 340 h 8 v 8 h -8 v -8 z M 270 340 h 8 v 8 h -8 v -8 z M 280 340 h 8 v 8 h -8 v -8 z M 290 340 h 8 v 8 h -8 v -8 z M 0 350 h 8 v 8 h -8 v -8 z M 10 350 h 8 v 8 h -8 v -8 z M 20 350 h 8 v 8 h -8 v -8 z M 30 350 h 8 v 8 h -8 v -8 z M 40 350 h 8 v 8 h -8 v -8 z M 50 350 h 8 v 8 h -8 v -8 z M 60 350 h 8 v 8 h -8 v -8 z M 70 350 h 8 v 8 h -8 v -8 z M 80 350 h 8 v 8 h -8 v -8 z M 90 350 h 8 v 8 h -8 v -8 z M 100 350 h 8 v 8 h -8 v -8 z M 110 350 h 8 v 8 h -8 v -8 z M 120 350 h 8 v 8 h -8 v -8 z M 130 350 h 8 v 8 h -8 v -8 z M 140 350 h 8 v 8 h -8 v -8 z M 150 350 h 8 v 8 h -8 v -8 z M 160 350 h 8 v 8 h -8 v -8 z M 170 350 h 8 v 8 h -8 v -8 z M 180 350 h 8 v 8 h -8 v -8 z M 190 350 h 8 v 8 h -8 v -8 z M 200 350 h 8 v 8 h -8 v -8 z M 210 350 h 8 v 8 h -8 v -8 z M 220 350 h 8 v 8 h -8 v -8 z M 230 350 h 8 v 8 h -8 v -8 z M 240 350 h 8 v 8 h -8 v -8 z M 250 350 h 8 v 8 h -8 v -8 z M 260 350 h 8 v 8 h -8 v -8 z M 270 350 h 8 v 8 h -8 v -8 z M 280 350 h 8 v 8 h -8 v -8 z M 290 350 h 8 v 8 h -8 v -8 z M 0 360 h 8 v 8 h -8 v -8 z M 10 360 h 8 v 8 h -8 v -8 z M 20 360 h 8 v 8 h -8 v -8 z M 30 360 h 8 v 8 h -8 v -8 z M 40 360 h 8 v 8 h -8 v -8 z M 50 360 h 8 v 8 h -8 v -8 z M 60 360 h 8 v 8 h -8 v -8 z M 70 360 h 8 v 8 h -8 v -8 z M 80 360 h 8 v 8 h -8 v -8 z M 90 360 h 8 v 8 h -8 v -8 z M 100 360 h 8 v 8 h -8 v -8 z M 110 360 h 8 v 8 h -8 v -8 z M 120 360 h 8 v 8 h -8 v -8 z M 130 360 h 8 v 8 h -8 v -8 z M 140 360 h 8 v 8 h -8 v -8 z M 150 360 h 8 v 8 h -8 v -8 z M 160 360 h 8 v 8 h -8 v -8 z M 170 360 h 8 v 8 h -8 v -8 z M 180 360 h 8 v 8 h -8 v -8 z M 190 360 h 8 v 8 h -8 v -8 z M 200 360 h 8 v 8 h -8 v -8 z M 210 360 h 8 v 8 h -8 v -8 z M 220 360 h 8 v 8 h -8 v -8 z M 230 360 h 8 v 8 h -8 v -8 z M 240 360 h 8 v 8 h -8 v -8 z M 250 360 h 8 v 8 h -8 v -8 z M 260 360 h 8 v 8 h -8 v -8 z M 270 360 h 8 v 8 h -8 v -8 z M 280 360 h 8 v 8 h -8 v -8 z M 290 360 h 8 v 8 h -8 v -8 z M 0 370 h 8 v 8 h -8 v -8 z M 10 370 h 8 v 8 h -8 v -8 z M 20 370 h 8 v 8 h -8 v -8 z M 30 370 h 8 v 8 h -8 v -8 z M 40 370 h 8 v 8 h -8 v -8 z M 50 370 h 8 v 8 h -8 v -8 z M 60 370 h 8 v 8 h -8 v -8 z M 70 370 h 8 v 8 h -8 v -8 z M 80 370 h 8 v 8 h -8 v -8 z M 90 370 h 8 v 8 h -8 v -8 z M 100 370 h 8 v 8 h -8 v -8 z M 110 370 h 8 v 8 h -8 v -8 z M 120 370 h 8 v 8 h -8 v -8 z M 130 370 h 8 v 8 h -8 v -8 z M 140 370 h 8 v 8 h -8 v -8 z M 150 370 h 8 v 8 h -8 v -8 z M 160 370 h 8 v 8 h -8 v -8 z M 170 370 h 8 v 8 h -8 v -8 z M 180 370 h 8 v 8 h -8 v -8 z M 190 370 h 8 v 8 h -8 v -8 z M 200 370 h 8 v 8 h -8 v -8 z M 210 370 h 8 v 8 h -8 v -8 z M 220 370 h 8 v 8 h -8 v -8 z M 230 370 h 8 v 8 h -8 v -8 z M 240 370 h 8 v 8 h -8 v -8 z M 250 370 h 8 v 8 h -8 v -8 z M 260 370 h 8 v 8 h -8 v -8 z M 270 370 h 8 v 8 h -8 v -8 z M 280 370 h 8 v 8 h -8 v -8 z M 290 370 h 8 v 8 h -8 v -8 z M 0 380 h 8 v 8 h -8 v -8 z M 10 380 h 8 v 8 h -8 v -8 z M 20 380 h 8 v 8 h -8 v -8 z M 30 380 h 8 v 8 h -8 v -8 z M 40 380 h 8 v 8 h -8 v -8 z M 50 380 h 8 v 8 h -8 v -8 z M 60 380 h 8 v 8 h -8 v -8 z M 70 380 h 8 v 8 h -8 v -8 z M 80 380 h 8 v 8 h -8 v -8 z M 90 380 h 8 v 8 h -8 v -8 z M 100 380 h 8 v 8 h -8 v -8 z M 110 380 h 8 v 8 h -8 v -8 z M 120 380 h 8 v 8 h -8 v -8 z M 130 380 h 8 v 8 h -8 v -8 z M 140 380 h 8 v 8 h -8 v -8 z M 150 380 h 8 v 8 h -8 v -8 z M 160 380 h 8 v 8 h -8 v -8 z M 170 380 h 8 v 8 h -8 v -8 z M 180 380 h 8 v 8 h -8 v -8 z M 190 380 h 8 v 8 h -8 v -8 z M 200 380 h 8 v 8 h -8 v -8 z M 210 380 h 8 v 8 h -8 v -8 z M 220 380 h 8 v 8 h -8 v -8 z M 230 380 h 8 v 8 h -8 v -8 z M 240 380 h 8 v 8 h -8 v -8 z M 250 380 h 8 v 8 h -8 v -8 z M 260 380 h 8 v 8 h -8 v -8 z M 270 380 h 8 v 8 h -8 v -8 z M 280 380 h 8 v 8 h -8 v -8 z M 290 380 h 8 v 8 h -8 v -8 z M 0 390 h 8 v 8 h -8 v -8 z M 10 390 h 8 v 8 h -8 v -8 z M 20 390 h 8 v 8 h -8 v -8 z M 30 390 h 8 v 8 h -8 v -8 z M 40 390 h 8 v 8 h -8 v -8 z M 50 390 h 8 v 8 h -8 v -8 z M 60 390 h 8 v 8 h -8 v -8 z M 70 390 h 8 v 8 h -8 v -8 z M 80 390 h 8 v 8 h -8 v -8 z M 90 390 h 8 v 8 h -8 v -8 z M 100 390 h 8 v 8 h -8 v -8 z M 110 390 h 8 v 8 h -8 v -8 z M 120 390 h 8 v 8 h -8 v -8 z M 130 390 h 8 v 8 h -8 v -8 z M 140 390 h 8 v 8 h -8 v -8 z M 150 390 h 8 v 8 h -8 v -8 z M 160 390 h 8 v 8 h -8 v -8 z M 170 390 h 8 v 8 h -8 v -8 z M 180 390 h 8 v 8 h -8 v -8 z M 190 390 h 8 v 8 h -8 v -8 z M 200 390 h 8 v 8 h -8 v -8 z M 210 390 h 8 v 8 h -8 v -8 z M 220 390 h 8 v 8 h -8 v -8 z M 230 390 h 8 v 8 h -8 v -8 z M 240 390 h 8 v 8 h -8 v -8 z M 250 390 h 8 v 8 h -8 v -8 z M 260 390 h 8 v 8 h -8 v -8 z M 270 390 h 8 v 8 h -8 v -8 z M 280 390 h 8 v 8 h -8 v -8 z M 290 390 h 8 v 8 h -8 v -8 z M 0 400 h 8 v 8 h -8 v -8 z M 10 400 h 8 v 8 h -8 v -8 z M 20 400 h 8 v 8 h -8 v -8 z M 30 400 h 8 v 8 h -8 v -8 z M 40 400 h 8 v 8 h -8 v -8 z M 50 400 h 8 v 8 h -8 v -8 z M 60 400 h 8 v 8 h -8 v -8 z M 70 400 h 8 v 8 h -8 v -8 z M 80 400 h 8 v 8 h -8 v -8 z M 90 400 h 8 v 8 h -8 v -8 z M 100 400 h 8 v 8 h -8 v -8 z M 110 400 h 8 v 8 h -8 v -8 z M 120 400 h 8 v 8 h -8 v -8 z M 130 400 h 8 v 8 h -8 v -8 z M 140 400 h 8 v 8 h -8 v -8 z M 150 400 h 8 v 8 h -8 v -8 z M 160 400 h 8 v 8 h -8 v -8 z M 170 400 h 8 v 8 h -8 v -8 z M 180 400 h 8 v 8 h -8 v -8 z M 190 400 h 8 v 8 h -8 v -8 z M 200 400 h 8 v 8 h -8 v -8 z M 210 400 h 8 v 8 h -8 v -8 z M 220 400 h 8 v 8 h -8 v -8 z M 230 400 h 8 v 8 h -8 v -8 z M 240 400 h 8 v 8 h -8 v -8 z M 250 400 h 8 v 8 h -8 v -8 z M 260 400 h 8 v 8 h -8 v -8 z M 270 400 h 8 v 8 h -8 v -8 z M 280 400 h 8 v 8 h -8 v -8 z M 290 400 h 8 v 8 h -8 v -8 z M 0 410 h 8 v 8 h -8 v -8 z M 10 410 h 8 v 8 h -8 v -8 z M 20 410 h 8 v 8 h -8 v -8 z M 30 410 h 8 v 8 h -8 v -8 z M 40 410 h 8 v 8 h -8 v -8 z M 50 410 h 8 v 8 h -8 v -8 z M 60 410 h 8 v 8 h -8 v -8 z M 70 410 h 8 v 8 h -8 v -8 z M 80 410 h 8 v 8 h -8 v -8 z M 90 410 h 8 v 8 h -8 v -8 z M 100 410 h 8 v 8 h -8 v -8 z M 110 410 h 8 v 8 h -8 v -8 z M 120 410 h 8 v 8 h -8 v -8 z M 130 410 h 8 v 8 h -8 v -8 z M 140 410 h 8 v 8 h -8 v -8 z M 150 410 h 8 v 8 h -8 v -8 z M 160 410 h 8 v 8 h -8 v -8 z M 170 410 h 8 v 8 h -8 v -8 z M 180 410 h 8 v 8 h -8 v -8 z M 190 410 h 8 v 8 h -8 v -8 z M 200 410 h 8 v 8 h -8 v -8 z M 210 410 h 8 v 8 h -8 v -8 z M 220 410 h 8 v 8 h -8 v -8 z M 230 410 h 8 v 8 h -8 v -8 z M 240 410 h 8 v 8 h -8 v -8 z M 250 410 h 8 v 8 h -8 v -8 z M 260 410 h 8 v 8 h -8 v -8 z M 270 410 h 8 v 8 h -8 v -8 z M 280 410 h 8 v 8 h -8 v -8 z M 290 410 h 8 v 8 h -8 v -8 z M 0 420 h 8 v 8 h -8 v -8 z M 10 420 h 8 v 8 h -8 v -8 z M 20 420 h 8 v 8 h -8 v -8 z M 30 420 h 8 v 8 h -8 v -8 z M 40 420 h 8 v 8 h -8 v -8 z M 50 420 h 8 v 8 h -8 v -8 z M 60 420 h 8 v 8 h -8 v -8 z M 70 420 h 8 v 8 h -8 v -8 z M 80 420 h 8 v 8 h -8 v -8 z M 90 420 h 8 v 8 h -8 v -8 z M 100 420 h 8 v 8 h -8 v -8 z M 110 420 h 8 v 8 h -8 v -8 z M 120 420 h 8 v 8 h -8 v -8 z M 130 420 h 8 v 8 h -8 v -8 z M 140 420 h 8 v 8 h -8 v -8 z M 150 420 h 8 v 8 h -8 v -8 z M 160 420 h 8 v 8 h -8 v -8 z M 170 420 h 8 v 8 h -8 v -8 z M 180 420 h 8 v 8 h -8 v -8 z M 190 420 h 8 v 8 h -8 v -8 z M 200 420 h 8 v 8 h -8 v -8 z M 210 420 h 8 v 8 h -8 v -8 z M 220 420 h 8 v 8 h -8 v -8 z M 230 420 h 8 v 8 h -8 v -8 z M 240 420 h 8 v 8 h -8 v -8 z M 250 420 h 8 v 8 h -8 v -8 z M 260 420 h 8 v 8 h -8 v -8 z M 270 420 h 8 v 8 h -8 v -8 z M 280 420 h 8 v 8 h -8 v -8 z M 290 420 h 8 v 8 h -8 v -8 z M 0 430 h 8 v 8 h -8 v -8 z M 10 430 h 8 v 8 h -8 v -8 z M 20 430 h 8 v 8 h -8 v -8 z M 30 430 h 8 v 8 h -8 v -8 z M 40 430 h 8 v 8 h -8 v -8 z M 50 430 h 8 v 8 h -8 v -8 z M 60 430 h 8 v 8 h -8 v -8 z M 70 430 h 8 v 8 h -8 v -8 z M 80 430 h 8 v 8 h -8 v -8 z M 90 430 h 8 v 8 h -8 v -8 z M 100 430 h 8 v 8 h -8 v -8 z M 110 430 h 8 v 8 h -8 v -8 z M 120 430 h 8 v 8 h -8 v -8 z M 130 430 h 8 v 8 h -8 v -8 z M 140 430 h 8 v 8 h -8 v -8 z M 150 430 h 8 v 8 h -8 v -8 z M 160 430 h 8 v 8 h -8 v -8 z M 170 430 h 8 v 8 h -8 v -8 z M 180 430 h 8 v 8 h -8 v -8 z M 190 430 h 8 v 8 h -8 v -8 z M 200 430 h 8 v 8 h -8 v -8 z M 210 430 h 8 v 8 h -8 v -8 z M 220 430 h 8 v 8 h -8 v -8 z M 230 430 h 8 v 8 h -8 v -8 z M 240 430 h 8 v 8 h -8 v -8 z M 250 430 h 8 v 8 h -8 v -8 z M 260 430 h 8 v 8 h -8 v -8 z M 270 430 h 8 v 8 h -8 v -8 z M 280 430 h 8 v 8 h -8 v -8 z M 290 430 h 8 v 8 h -8 v -8 z M 0 440 h 8 v 8 h -8 v -8 z M 10 440 h 8 v 8 h -8 v -8 z M 20 440 h 8 v 8 h -8 v -8 z M 30 440 h 8 v 8 h -8 v -8 z M 40 440 h 8 v 8 h -8 v -8 z M 50 440 h 8 v 8 h -8 v -8 z M 60 440 h 8 v 8 h -8 v -8 z M 70 440 h 8 v 8 h -8 v -8 z M 80 440 h 8 v 8 h -8 v -8 z M 90 440 h 8 v 8 h -8 v -8 z M 100 440 h 8 v 8 h -8 v -8 z M 110 440 h 8 v 8 h -8 v -8 z M 120 440 h 8 v 8 h -8 v -8 z M 130 440 h 8 v 8 h -8 v -8 z M 140 440 h 8 v 8 h -8 v -8 z M 150 440 h 8 v 8 h -8 v -8 z M 160 440 h 8 v 8 h -8 v -8 z M 170 440 h 8 v 8 h -8 v -8 z M 180 440 h 8 v 8 h -8 v -8 z M 190 440 h 8 v 8 h -8 v -8 z M 200 440 h 8 v 8 h -8 v -8 z M 210 440 h 8 v 8 h -8 v -8 z M 220 440 h 8 v 8 h -8 v -8 z M 230 440 h 8 v 8 h -8 v -8 z M 240 440 h 8 v 8 h -8 v -8 z M 250 440 h 8 v 8 h -8 v -8 z M 260 440 h 8 v 8 h -8 v -8 z M 270 440 h 8 v 8 h -8 v -8 z M 280 440 h 8 v 8 h -8 v -8 z M 290 440 h 8 v 8 h -8 v -8 z M 0 450 h 8 v 8 h -8 v -8 z M 10 450 h 8 v 8 h -8 v -8 z M 20 450 h 8 v 8 h -8 v -8 z M 30 450 h 8 v 8 h -8 v -8 z M 40 450 h 8 v 8 h -8 v -8 z M 50 450 h 8 v 8 h -8 v -8 z M 60 450 h 8 v 8 h -8 v -8 z M 70 450 h 8 v 8 h -8 v -8 z M 80 450 h 8 v 8 h -8 v -8 z M 90 450 h 8 v 8 h -8 v -8 z M 100 450 h 8 v 8 h -8 v -8 z M 110 450 h 8 v 8 h -8 v -8 z M 120 450 h 8 v 8 h -8 v -8 z M 130 450 h 8 v 8 h -8 v -8 z M 140 450 h 8 v 8 h -8 v -8 z M 150 450 h 8 v 8 h -8 v -8 z M 160 450 h 8 v 8 h -8 v -8 z M 170 450 h 8 v 8 h -8 v -8 z M 180 450 h 8 v 8 h -8 v -8 z M 190 450 h 8 v 8 h -8 v -8 z M 200 450 h 8 v 8 h -8 v -8 z M 210 450 h 8 v 8 h -8 v -8 z M 220 450 h 8 v 8 h -8 v -8 z M 230 450 h 8 v 8 h -8 v -8 z M 240 450 h 8 v 8 h -8 v -8 z M 250 450 h 8 v 8 h -8 v -8 z M 260 450 h 8 v 8 h -8 v -8 z M 270 450 h 8 v 8 h -8 v -8 z M 280 450 h 8 v 8 h -8 v -8 z M 290 450 h 8 v 8 h -8 v -8 z M 0 460 h 8 v 8 h -8 v -8 z M 10 460 h 8 v 8 h -8 v -8 z M 20 460 h 8 v 8 h -8 v -8 z M 30 460 h 8 v 8 h -8 v -8 z M 40 460 h 8 v 8 h -8 v -8 z M 50 460 h 8 v 8 h -8 v -8 z M 60 460 h 8 v 8 h -8 v -8 z M 70 460 h 8 v 8 h -8 v -8 z M 80 460 h 8 v 8 h -8 v -8 z M 90 460 h 8 v 8 h -8 v -8 z M 100 460 h 8 v 8 h -8 v -8 z M 110 460 h 8 v 8 h -8 v -8 z M 120 460 h 8 v 8 h -8 v -8 z M 130 460 h 8 v 8 h -8 v -8 z M 140 460 h 8 v 8 h -8 v -8 z M 150 460 h 8 v 8 h -8 v -8 z M 160 460 h 8 v 8 h -8 v -8 z M 170 460 h 8 v 8 h -8 v -8 z M 180 460 h 8 v 8 h -8 v -8 z M 190 460 h 8 v 8 h -8 v -8 z M 200 460 h 8 v 8 h -8 v -8 z M 210 460 h 8 v 8 h -8 v -8 z M 220 460 h 8 v 8 h -8 v -8 z M 230 460 h 8 v 8 h -8 v -8 z M 240 460 h 8 v 8 h -8 v -8 z M 250 460 h 8 v 8 h -8 v -8 z M 260 460 h 8 v 8 h -8 v -8 z M 270 460 h 8 v 8 h -8 v -8 z M 280 460 h 8 v 8 h -8 v -8 z M 290 460 h 8 v 8 h -8 v -8 z M 0 470 h 8 v 8 h -8 v -8 z M 10 470 h 8 v 8 h -8 v -8 z M 20 470 h 8 v 8 h -8 v -8 z M 30 470 h 8 v 8 h -8 v -8 z M 40 470 h 8 v 8 h -8 v -8 z M 50 470 h 8 v 8 h -8 v -8 z M 60 470 h 8 v 8 h -8 v -8 z M 70 470 h 8 v 8 h -8 v -8 z M 80 470 h 8 v 8 h -8 v -8 z M 90 470 h 8 v 8 h -8 v -8 z M 100 470 h 8 v 8 h -8 v -8 z M 110 470 h 8 v 8 h -8 v -8 z M 120 470 h 8 v 8 h -8 v -8 z M 130 470 h 8 v 8 h -8 v -8 z M 140 470 h 8 v 8 h -8 v -8 z M 150 470 h 8 v 8 h -8 v -8 z M 160 470 h 8 v 8 h -8 v -8 z M 170 470 h 8 v 8 h -8 v -8 z M 180 470 h 8 v 8 h -8 v -8 z M 190 470 h 8 v 8 h -8 v -8 z M 200 470 h 8 v 8 h -8 v -8 z M 210 470 h 8 v 8 h -8 v -8 z M 220 470 h 8 v 8 h -8 v -8 z M 230 470 h 8 v 8 h -8 v -8 z M 240 470 h 8 v 8 h -8 v -8 z M 250 470 h 8 v 8 h -8 v -8 z M 260 470 h 8 v 8 h -8 v -8 z M 270 470 h 8 v 8 h -8 v -8 z M 280 470 h 8 v 8 h -8 v -8 z M 290 470 h 8 v 8 h -8 v -8 z M 0 480 h 8 v 8 h -8 v -8 z M 10 480 h 8 v 8 h -8 v -8 z M 20 480 h 8 v 8 h -8 v -8 z M 30 480 h 8 v 8 h -8 v -8 z M 40 480 h 8 v 8 h -8 v -8 z M 50 480 h 8 v 8 h -8 v -8 z M 60 480 h 8 v 8 h -8 v -8 z M 70 480 h 8 v 8 h -8 v -8 z M 80 480 h 8 v 8 h -8 v -8 z M 90 480 h 8 v 8 h -8 v -8 z M 100 480 h 8 v 8 h -8 v -8 z M 110 480 h 8 v 8 h -8 v -8 z M 120 480 h 8 v 8 h -8 v -8 z M 130 480 h 8 v 8 h -8 v -8 z M 140 480 h 8 v 8 h -8 v -8 z M 150 480 h 8 v 8 h -8 v -8 z M 160 480 h 8 v 8 h -8 v -8 z M 170 480 h 8 v 8 h -8 v -8 z M 180 480 h 8 v 8 h -8 v -8 z M 190 480 h 8 v 8 h -8 v -8 z M 200 480 h 8 v 8 h -8 v -8 z M 210 480 h 8 v 8 h -8 v -8 z M 220 480 h 8 v 8 h -8 v -8 z M 230 480 h 8 v 8 h -8 v -8 z M 240 480 h 8 v 8 h -8 v -8 z M 250 480 h 8 v 8 h -8 v -8 z M 260 480 h 8 v 8 h -8 v -8 z M 270 480 h 8 v 8 h -8 v -8 z M 280 480 h 8 v 8 h -8 v -8 z M 290 480 h 8 v 8 h -8 v -8 z M 0 490 h 8 v 8 h -8 v -8 z M 10 490 h 8 v 8 h -8 v -8 z M 20 490 h 8 v 8 h -8 v -8 z M 30 490 h 8 v 8 h -8 v -8 z M 40 490 h 8 v 8 h -8 v -8 z M 50 490 h 8 v 8 h -8 v -8 z M 60 490 h 8 v 8 h -8 v -8 z M 70 490 h 8 v 8 h -8 v -8 z M 80 490 h 8 v 8 h -8 v -8 z M 90 490 h 8 v 8 h -8 v -8 z M 100 490 h 8 v 8 h -8 v -8 z M 110 490 h 8 v 8 h -8 v -8 z M 120 490 h 8 v 8 h -8 v -8 z M 130 490 h 8 v 8 h -8 v -8 z M 140 490 h 8 v 8 h -8 v -8 z M 150 490 h 8 v 8 h -8 v -8 z M 160 490 h 8 v 8 h -8 v -8 z M 170 490 h 8 v 8 h -8 v -8 z M 180 490 h 8 v 8 h -8 v -8 z M 190 490 h 8 v 8 h -8 v -8 z M 200 490 h 8 v 8 h -8 v -8 z M 210 490 h 8 v 8 h -8 v -8 z M 220 490 h 8 v 8 h -8 v -8 z M 230 490 h 8 v 8 h -8 v -8 z M 240 490 h 8 v 8 h -8 v -8 z M 250 490 h 8 v 8 h -8 v -8 z M 260 490 h 8 v 8 h -8 v -8 z M 270 490 h 8 v 8 h -8 v -8 z M 280 490 h 8 v 8 h -8 v -8 z M 290 490 h 8 v 8 h -8 v -8 z"/>
</svg>
